<svg width="283" height="34" viewBox="0 0 283 34" fill="none" xmlns="http://www.w3.org/2000/svg">
<path d="M52.3689 4.09387H55.7677C56.5307 4.09387 57.155 4.16326 57.5018 4.30204C58.0567 4.44081 58.5422 4.71836 58.889 5.13469C59.3052 5.55102 59.5826 6.03673 59.7907 6.66122C59.9988 7.28571 60.0682 7.97959 60.0682 8.88163C60.0682 9.64489 59.9988 10.2694 59.7907 10.8245C59.5826 11.5184 59.2358 12.0735 58.8197 12.4898C58.4728 12.8367 58.0567 13.0449 57.5018 13.2531C57.0856 13.3918 56.5307 13.4612 55.8371 13.4612H52.2996C52.3689 13.3918 52.3689 4.09387 52.3689 4.09387ZM54.2417 5.68979V11.7959H55.629C56.1145 11.7959 56.5307 11.7959 56.7388 11.7265C57.0162 11.6571 57.2937 11.5184 57.5018 11.3102C57.7099 11.102 57.8486 10.8245 57.9873 10.4082C58.126 9.99183 58.1954 9.43673 58.1954 8.74285C58.1954 8.04897 58.126 7.49387 57.9873 7.07755C57.8486 6.66122 57.7099 6.38367 57.4324 6.1755C57.2243 5.96734 56.9469 5.82857 56.6 5.75918C56.3226 5.68979 55.8371 5.68979 55.0741 5.68979H54.2417V5.68979ZM61.7329 13.3918V4.09387H65.6866C66.6576 4.09387 67.4206 4.16326 67.8368 4.37142C68.253 4.5102 68.6692 4.85714 68.9466 5.27346C69.2241 5.68979 69.3628 6.1755 69.3628 6.73061C69.3628 7.42448 69.1547 7.97959 68.7385 8.4653C68.3223 8.95101 67.6981 9.22857 66.9351 9.29795C67.3513 9.50612 67.6981 9.78367 67.9062 10.0612C68.1836 10.3388 68.5304 10.8245 68.9466 11.5878L70.0564 13.3918H67.8368L66.5189 11.3796C66.0334 10.6857 65.6866 10.2 65.5478 9.99183C65.3398 9.78367 65.201 9.64489 64.9929 9.57551C64.7848 9.50612 64.5074 9.43673 64.0219 9.43673H63.675V13.3224C63.6057 13.3918 61.7329 13.3918 61.7329 13.3918ZM63.6057 8.04897H64.9929C65.8947 8.04897 66.4496 7.97959 66.6576 7.9102C66.8657 7.84081 67.0738 7.70204 67.2125 7.49387C67.3513 7.28571 67.4206 7.07755 67.4206 6.79999C67.4206 6.45306 67.3513 6.24489 67.1432 6.03673C67.0045 5.82857 66.727 5.68979 66.4496 5.68979C66.3108 5.68979 65.8253 5.68979 65.0623 5.68979H63.6057C63.6057 5.68979 63.6057 8.04897 63.6057 8.04897ZM71.0275 13.3918V4.09387H77.8944V5.68979H72.9003V7.77142H77.5476V9.36734H72.9003V11.7959H78.0331V13.3918H71.0275ZM87.952 13.3918H85.9405L85.1081 11.3102H81.4319L80.6689 13.3918H78.6574L82.2643 4.16326H84.2758L87.952 13.3918ZM84.5532 9.71428L83.2353 6.24489L81.9868 9.64489H84.5532V9.71428ZM88.9231 13.3918V4.09387H91.6976L93.3623 10.4082L95.027 4.09387H97.8015V13.3224H96.0674V6.03673L94.264 13.3224H92.4606L90.6571 6.03673V13.3224H88.9231V13.3918ZM102.657 30.2531V28.3796H104.53V30.2531H102.657ZM112.714 25.1878L110.842 25.5347C110.772 25.1878 110.634 24.9102 110.426 24.702C110.217 24.4939 109.94 24.4245 109.593 24.4245C109.108 24.4245 108.761 24.5633 108.483 24.9102C108.206 25.2571 108.067 25.8122 108.067 26.5061C108.067 27.3388 108.206 27.9633 108.483 28.3102C108.761 28.6571 109.177 28.8653 109.593 28.8653C109.94 28.8653 110.217 28.7265 110.495 28.5878C110.703 28.3796 110.911 28.0326 110.98 27.5469L112.853 27.8939C112.645 28.7265 112.298 29.4204 111.743 29.8367C111.189 30.2531 110.495 30.4612 109.524 30.4612C108.483 30.4612 107.651 30.1143 107.027 29.4898C106.402 28.8653 106.125 27.8939 106.125 26.7837C106.125 25.6041 106.402 24.702 107.027 24.0082C107.651 23.3837 108.483 23.0367 109.524 23.0367C110.356 23.0367 111.05 23.2449 111.605 23.5918C112.09 23.8694 112.506 24.4245 112.714 25.1878ZM113.686 26.5755C113.686 25.951 113.824 25.3265 114.171 24.7714C114.449 24.2163 114.934 23.7306 115.489 23.4531C116.044 23.1755 116.668 22.9673 117.362 22.9673C118.472 22.9673 119.304 23.3143 119.998 24.0082C120.691 24.702 121.038 25.6041 121.038 26.6449C121.038 27.7551 120.691 28.5877 119.998 29.351C119.304 30.0449 118.402 30.3918 117.362 30.3918C116.738 30.3918 116.113 30.2531 115.489 29.9755C114.934 29.698 114.449 29.2122 114.171 28.6571C113.824 28.102 113.686 27.4082 113.686 26.5755ZM115.628 26.7143C115.628 27.4082 115.766 27.9633 116.113 28.3102C116.46 28.6571 116.876 28.8653 117.362 28.8653C117.847 28.8653 118.264 28.6571 118.61 28.3102C118.957 27.9633 119.096 27.4082 119.096 26.6449C119.096 25.951 118.957 25.3959 118.61 25.049C118.264 24.702 117.847 24.4939 117.362 24.4939C116.876 24.4939 116.46 24.702 116.113 25.049C115.766 25.4653 115.628 25.951 115.628 26.7143ZM122.356 23.1061H124.09V24.0775C124.714 23.3143 125.477 22.9673 126.31 22.9673C126.795 22.9673 127.142 23.0367 127.489 23.2449C127.836 23.4531 128.113 23.7306 128.321 24.0775C128.668 23.7306 128.945 23.3837 129.362 23.2449C129.708 23.0367 130.125 22.9673 130.541 22.9673C131.096 22.9673 131.512 23.1061 131.859 23.3143C132.205 23.5224 132.483 23.8694 132.691 24.2163C132.83 24.4939 132.899 24.9796 132.899 25.6735V30.2531H131.026V26.1592C131.026 25.4653 130.957 24.9796 130.818 24.7714C130.679 24.4939 130.402 24.3551 129.986 24.3551C129.708 24.3551 129.5 24.4245 129.223 24.5633C129.015 24.702 128.807 24.9796 128.737 25.2571C128.668 25.6041 128.599 26.0898 128.599 26.7143V30.1143H126.726V26.3673C126.726 25.6735 126.726 25.2571 126.656 25.049C126.587 24.8408 126.518 24.702 126.379 24.6326C126.24 24.5633 126.032 24.4939 125.824 24.4939C125.547 24.4939 125.269 24.5633 125.061 24.702C124.853 24.8408 124.645 25.049 124.576 25.3959C124.506 25.6735 124.437 26.1592 124.437 26.8531V30.3224H122.564L122.356 23.1061Z" fill="#009EE8"/>
<path d="M106.056 9.71436L107.998 10.3389C107.72 11.4491 107.235 12.2123 106.541 12.7674C105.848 13.3225 105.015 13.5307 103.905 13.5307C102.588 13.5307 101.547 13.1144 100.715 12.2123C99.8823 11.3103 99.4662 10.1307 99.4662 8.53477C99.4662 6.86946 99.8823 5.62048 100.715 4.71844C101.547 3.8164 102.657 3.33069 104.044 3.33069C105.223 3.33069 106.194 3.67763 106.957 4.3715C107.374 4.78783 107.72 5.41232 107.998 6.17559L106.056 6.6613C105.917 6.17559 105.709 5.75926 105.362 5.48171C105.015 5.20416 104.53 5.06538 104.044 5.06538C103.281 5.06538 102.726 5.34293 102.241 5.82865C101.755 6.38375 101.547 7.2164 101.547 8.396C101.547 9.64497 101.755 10.547 102.241 11.0327C102.657 11.5878 103.281 11.796 103.975 11.796C104.53 11.796 104.946 11.6572 105.362 11.3103C105.639 10.9633 105.917 10.4776 106.056 9.71436ZM109.663 13.3919V3.53885H113.824C114.865 3.53885 115.628 3.60824 116.113 3.8164C116.599 4.02457 116.946 4.30212 117.223 4.78783C117.5 5.27355 117.639 5.75926 117.639 6.31436C117.639 7.07763 117.431 7.63273 117.015 8.11844C116.599 8.60416 115.905 8.88171 115.073 9.02048C115.489 9.29804 115.836 9.57559 116.113 9.85314C116.391 10.1307 116.737 10.6858 117.223 11.4491L118.402 13.3919H116.044L114.587 11.2409C114.102 10.4776 113.755 9.99191 113.547 9.78375C113.339 9.57559 113.131 9.43681 112.923 9.36742C112.714 9.29804 112.368 9.22865 111.951 9.22865H111.674V13.3225H109.663V13.3919ZM111.674 7.70212H113.131C114.102 7.70212 114.657 7.63273 114.934 7.56334C115.142 7.49395 115.35 7.35518 115.489 7.14702C115.628 6.93885 115.697 6.73069 115.697 6.38375C115.697 6.03681 115.628 5.75926 115.42 5.5511C115.212 5.34293 115.003 5.20416 114.657 5.13477C114.518 5.13477 114.032 5.13477 113.2 5.13477H111.674V7.70212ZM119.581 13.3919V3.53885H126.864V5.20416H121.593V7.35518H126.518V9.02048H121.593V11.6572H127.073V13.3225H119.581V13.3919ZM128.737 3.53885H132.344C133.176 3.53885 133.801 3.60824 134.217 3.74701C134.772 3.88579 135.257 4.23273 135.674 4.64906C136.09 5.06538 136.367 5.62048 136.645 6.24497C136.853 6.86946 136.991 7.63273 136.991 8.53477C136.991 9.36742 136.922 10.0613 136.714 10.6164C136.437 11.3103 136.09 11.9348 135.674 12.3511C135.327 12.698 134.841 12.9756 134.286 13.1144C133.87 13.2531 133.246 13.3225 132.552 13.3225H128.807C128.737 13.3919 128.737 3.53885 128.737 3.53885ZM130.679 5.20416V11.7266H132.136C132.691 11.7266 133.107 11.7266 133.315 11.6572C133.662 11.5878 133.87 11.4491 134.148 11.2409C134.356 11.0327 134.564 10.7552 134.633 10.2695C134.772 9.85314 134.841 9.22865 134.841 8.46538C134.841 7.70212 134.772 7.14701 134.633 6.73069C134.494 6.31436 134.286 6.03681 134.078 5.75926C133.87 5.5511 133.523 5.41232 133.176 5.27355C132.899 5.20416 132.344 5.20416 131.581 5.20416H130.679ZM138.587 13.3919V3.53885H140.598V13.3919H138.587ZM144.621 13.3919V5.20416H141.708V3.53885H149.477V5.20416H146.563V13.3919H144.621ZM52.4382 30.2531V20.4001H55.4208L57.1549 27.1307L58.889 20.4001H61.8716V30.2531H60.0681V22.4817L58.126 30.2531H56.1838L54.2417 22.4817V30.2531H52.4382ZM72.6922 30.2531H70.5419L69.7096 28.0327H65.7559L64.9235 30.2531H62.8426L66.6576 20.4001H68.7385L72.6922 30.2531ZM69.0853 26.3674L67.698 22.7593L66.3801 26.3674H69.0853ZM73.802 30.2531V20.4001H75.8135V24.7715L79.8365 20.4001H82.4723L78.7961 24.2164L82.6804 30.1838H80.114L77.4088 25.5348L75.8135 27.2001V30.1838C75.8135 30.2531 73.802 30.2531 73.802 30.2531ZM83.6515 30.2531V20.4001H90.9346V22.0654H85.663V24.2164H90.5877V25.8817H85.663V28.5184H91.1426V30.1838H83.6515V30.2531ZM92.8074 30.2531V20.4001H96.9691C98.0096 20.4001 98.7726 20.4695 99.2581 20.6776C99.7436 20.8858 100.09 21.1633 100.368 21.6491C100.645 22.1348 100.784 22.6205 100.784 23.1756C100.784 23.9389 100.576 24.494 100.16 24.9797C99.7436 25.4654 99.1194 25.7429 98.2177 25.8817C98.6338 26.1593 98.9806 26.4368 99.2581 26.7144C99.5355 26.9919 99.8824 27.547 100.368 28.3103L101.547 30.2531H99.1887L97.8015 28.1021C97.3159 27.3389 96.9691 26.8531 96.761 26.645C96.5529 26.4368 96.3449 26.298 96.1368 26.2286C95.9287 26.1593 95.5819 26.0899 95.1657 26.0899H94.7495V30.1838L92.8074 30.2531ZM94.8189 24.5633H96.2755C97.2466 24.5633 97.8015 24.494 98.0789 24.4246C98.287 24.3552 98.4951 24.2164 98.6338 24.0082C98.7725 23.8001 98.8419 23.5919 98.8419 23.245C98.8419 22.898 98.7726 22.6205 98.5645 22.4123C98.3564 22.2042 98.1483 22.0654 97.8015 21.996C97.6627 21.996 97.1772 21.996 96.3448 21.996H94.8189V24.5633Z" fill="white"/>
<path d="M170.078 13.3919V5.48169H175.418V6.38373H171.118V8.8123H174.794V9.71434H171.118V13.3225H170.078V13.3919ZM176.667 6.59189V5.48169H177.638V6.59189H176.667ZM176.667 13.3919V7.63271H177.638V13.3225H176.667V13.3919ZM179.095 13.3919V7.63271H179.996V8.46536C180.413 7.84087 181.037 7.56332 181.8 7.56332C182.147 7.56332 182.493 7.63271 182.771 7.77149C183.048 7.91026 183.256 8.04904 183.395 8.2572C183.534 8.46536 183.673 8.67353 183.673 8.95108C183.742 9.15924 183.742 9.43679 183.742 9.92251V13.4613H182.771V9.99189C182.771 9.57557 182.702 9.29802 182.632 9.08985C182.563 8.88169 182.424 8.74291 182.216 8.60414C182.008 8.46536 181.8 8.46536 181.522 8.46536C181.106 8.46536 180.759 8.60414 180.482 8.88169C180.204 9.15924 180.066 9.64495 180.066 10.4082V13.5307H179.095V13.3919ZM188.944 13.3919V12.698C188.597 13.2531 188.042 13.5307 187.349 13.5307C186.863 13.5307 186.447 13.3919 186.1 13.1837C185.753 12.9062 185.407 12.5592 185.199 12.1429C184.991 11.7266 184.852 11.1715 184.852 10.6164C184.852 10.0613 184.921 9.50618 185.129 9.08985C185.337 8.60414 185.615 8.2572 185.962 8.04904C186.308 7.77149 186.794 7.7021 187.21 7.7021C187.557 7.7021 187.834 7.77149 188.112 7.91026C188.389 8.04904 188.597 8.2572 188.736 8.46536V5.48169H189.707V13.3919H188.944ZM185.892 10.4776C185.892 11.2409 186.031 11.7266 186.378 12.1429C186.655 12.4899 187.071 12.698 187.488 12.698C187.904 12.698 188.251 12.5592 188.597 12.2123C188.875 11.8654 189.014 11.3103 189.014 10.6164C189.014 9.85312 188.875 9.29802 188.528 8.88169C188.251 8.53475 187.834 8.32659 187.418 8.32659C187.002 8.32659 186.655 8.53475 186.308 8.88169C186.031 9.22863 185.892 9.78373 185.892 10.4776ZM196.505 12.4899L196.643 13.3225C196.366 13.3919 196.158 13.3919 195.88 13.3919C195.534 13.3919 195.256 13.3225 195.048 13.2531C194.84 13.1837 194.701 12.9756 194.632 12.8368C194.563 12.698 194.493 12.2817 194.493 11.6572V8.32659H193.8V7.63271H194.493V6.24495L195.464 5.68985V7.63271H196.435V8.39598H195.464V11.7266C195.464 12.0041 195.464 12.2123 195.534 12.2817C195.534 12.3511 195.603 12.4205 195.672 12.4899C195.742 12.5592 195.88 12.5592 196.019 12.5592C196.227 12.5592 196.366 12.4899 196.505 12.4899ZM197.476 13.3919V5.48169H198.447V8.32659C198.863 7.77149 199.487 7.56332 200.181 7.56332C200.597 7.56332 200.944 7.63271 201.291 7.84087C201.568 7.97965 201.846 8.2572 201.984 8.53475C202.123 8.8123 202.192 9.22863 202.192 9.78373V13.3919H201.152V9.71434C201.152 9.22863 201.013 8.88169 200.875 8.67353C200.666 8.46536 200.389 8.32659 199.973 8.32659C199.695 8.32659 199.418 8.39598 199.141 8.53475C198.863 8.67353 198.724 8.88169 198.586 9.15924C198.447 9.43679 198.447 9.78373 198.447 10.2001V13.3225H197.476V13.3919ZM207.464 11.5184L208.435 11.6572C208.296 12.2123 208.019 12.698 207.533 13.045C207.117 13.3919 206.562 13.5307 205.869 13.5307C205.036 13.5307 204.343 13.2531 203.857 12.7674C203.372 12.2817 203.094 11.5184 203.094 10.6164C203.094 9.64496 203.372 8.88169 203.857 8.39598C204.343 7.84087 204.967 7.63271 205.799 7.63271C206.562 7.63271 207.187 7.91026 207.672 8.39598C208.158 8.88169 208.366 9.64496 208.366 10.6164C208.366 10.6858 208.366 10.7552 208.366 10.8939H204.135C204.204 11.5184 204.343 12.0041 204.69 12.3511C205.036 12.698 205.383 12.8368 205.869 12.8368C206.216 12.8368 206.493 12.7674 206.77 12.5592C207.117 12.2123 207.325 11.9348 207.464 11.5184ZM204.343 9.92251H207.533C207.464 9.43679 207.395 9.08985 207.187 8.8123C206.909 8.46536 206.493 8.2572 206.007 8.2572C205.591 8.2572 205.175 8.39598 204.898 8.67353C204.551 9.02047 204.343 9.43679 204.343 9.92251ZM213.707 13.3919H212.805V5.48169H213.776V8.32659C214.192 7.84087 214.678 7.56332 215.371 7.56332C215.718 7.56332 216.065 7.63271 216.342 7.77149C216.689 7.91026 216.897 8.11842 217.105 8.39598C217.314 8.67353 217.452 8.95108 217.591 9.29802C217.73 9.64495 217.73 10.0613 217.73 10.4776C217.73 11.449 217.452 12.2123 217.036 12.7674C216.551 13.3225 215.996 13.6001 215.302 13.6001C214.608 13.6001 214.123 13.3225 213.707 12.7674V13.3919V13.3919ZM213.637 10.4776C213.637 11.1715 213.707 11.6572 213.915 11.9348C214.192 12.4205 214.608 12.698 215.163 12.698C215.579 12.698 215.926 12.4899 216.273 12.1429C216.551 11.796 216.759 11.2409 216.759 10.4776C216.759 9.71434 216.62 9.15924 216.342 8.8123C216.065 8.46536 215.718 8.2572 215.302 8.2572C214.886 8.2572 214.539 8.46536 214.192 8.8123C213.845 9.22863 213.637 9.78373 213.637 10.4776ZM222.793 11.5184L223.764 11.6572C223.626 12.2123 223.348 12.698 222.863 13.045C222.446 13.3919 221.891 13.5307 221.198 13.5307C220.366 13.5307 219.672 13.2531 219.186 12.7674C218.701 12.2817 218.423 11.5184 218.423 10.6164C218.423 9.64496 218.701 8.88169 219.186 8.39598C219.672 7.84087 220.296 7.63271 221.128 7.63271C221.891 7.63271 222.516 7.91026 223.001 8.39598C223.487 8.88169 223.695 9.64496 223.695 10.6164C223.695 10.6858 223.695 10.7552 223.695 10.8939H219.464C219.533 11.5184 219.672 12.0041 220.019 12.3511C220.366 12.698 220.712 12.8368 221.198 12.8368C221.545 12.8368 221.822 12.7674 222.1 12.5592C222.446 12.2123 222.654 11.9348 222.793 11.5184ZM219.603 9.92251H222.793C222.724 9.43679 222.654 9.08985 222.446 8.8123C222.169 8.46536 221.753 8.2572 221.267 8.2572C220.851 8.2572 220.435 8.39598 220.157 8.67353C219.811 9.02047 219.672 9.43679 219.603 9.92251ZM224.666 11.6572L225.637 11.5184C225.706 11.9348 225.845 12.2123 226.053 12.4205C226.331 12.6286 226.608 12.698 227.094 12.698C227.51 12.698 227.857 12.6286 228.065 12.4205C228.273 12.2123 228.412 12.0041 228.412 11.796C228.412 11.5878 228.342 11.3796 228.134 11.3103C227.995 11.2409 227.649 11.1021 227.163 10.9633C226.469 10.7552 225.984 10.6164 225.706 10.4776C225.429 10.3388 225.221 10.1307 225.082 9.92251C224.943 9.71434 224.874 9.43679 224.874 9.15924C224.874 8.88169 224.943 8.67353 225.082 8.46536C225.221 8.2572 225.36 8.04904 225.568 7.91026C225.706 7.77149 225.915 7.7021 226.192 7.63271C226.469 7.56332 226.747 7.49393 227.024 7.49393C227.441 7.49393 227.857 7.56332 228.204 7.7021C228.55 7.84087 228.758 7.97965 228.966 8.2572C229.105 8.46536 229.244 8.74291 229.313 9.15924L228.342 9.29802C228.273 9.02046 228.204 8.74291 227.995 8.60414C227.787 8.46536 227.51 8.32659 227.094 8.32659C226.678 8.32659 226.331 8.39598 226.123 8.53475C225.915 8.67353 225.845 8.88169 225.845 9.02047C225.845 9.15924 225.915 9.22863 225.984 9.3674C226.053 9.50618 226.192 9.57557 226.331 9.64495C226.4 9.71434 226.678 9.78373 227.163 9.92251C227.857 10.1307 228.342 10.2694 228.62 10.3388C228.897 10.4776 229.105 10.6164 229.244 10.8245C229.383 11.0327 229.452 11.3103 229.452 11.6572C229.452 12.0041 229.383 12.2817 229.175 12.5592C228.966 12.8368 228.689 13.045 228.342 13.2531C227.995 13.3919 227.579 13.4613 227.163 13.4613C226.4 13.4613 225.845 13.3225 225.498 12.9756C225.013 12.698 224.735 12.2817 224.666 11.6572ZM232.643 12.4899L232.781 13.3225C232.504 13.3919 232.296 13.3919 232.018 13.3919C231.672 13.3919 231.394 13.3225 231.186 13.2531C230.978 13.1143 230.839 12.9756 230.77 12.8368C230.701 12.6286 230.631 12.2817 230.631 11.6572V8.32659H229.938V7.63271H230.631V6.24495L231.602 5.68985V7.63271H232.573V8.39598H231.672V11.7266C231.672 12.0041 231.672 12.2123 231.741 12.2817C231.741 12.3511 231.81 12.4205 231.88 12.4899C231.949 12.5592 232.088 12.5592 232.227 12.5592C232.296 12.5592 232.435 12.4899 232.643 12.4899ZM173.684 24.8409L174.655 24.9796C174.517 25.6041 174.309 26.1592 173.892 26.5062C173.476 26.8531 172.921 27.0613 172.297 27.0613C171.534 27.0613 170.91 26.7837 170.424 26.298C169.939 25.8123 169.731 25.049 169.731 24.0776C169.731 23.4531 169.8 22.898 170.008 22.4817C170.216 21.996 170.494 21.649 170.91 21.4409C171.326 21.2327 171.812 21.0939 172.297 21.0939C172.921 21.0939 173.407 21.2327 173.823 21.5796C174.239 21.9266 174.447 22.3429 174.586 22.898L173.615 23.0368C173.546 22.6205 173.338 22.3429 173.129 22.2041C172.921 21.996 172.644 21.9266 172.297 21.9266C171.812 21.9266 171.395 22.1348 171.118 22.4817C170.841 22.8286 170.632 23.3837 170.632 24.147C170.632 24.9103 170.771 25.4654 171.049 25.8123C171.326 26.1592 171.742 26.3674 172.228 26.3674C172.575 26.3674 172.921 26.2286 173.199 26.0205C173.407 25.6735 173.615 25.3266 173.684 24.8409ZM175.418 26.9225V21.2327H176.32V22.1348C176.528 21.7184 176.736 21.4409 176.944 21.3021C177.153 21.1633 177.361 21.0939 177.569 21.0939C177.916 21.0939 178.262 21.1633 178.54 21.3715L178.193 22.2735C177.985 22.1348 177.707 22.0654 177.499 22.0654C177.291 22.0654 177.083 22.1348 176.944 22.2735C176.806 22.4123 176.667 22.5511 176.598 22.8286C176.459 23.1756 176.459 23.5225 176.459 23.9388V26.9225H175.418V26.9225ZM182.979 25.049L183.95 25.1878C183.811 25.7429 183.534 26.2286 183.048 26.5756C182.632 26.9225 182.077 27.0613 181.384 27.0613C180.551 27.0613 179.858 26.7837 179.372 26.298C178.887 25.8123 178.609 25.049 178.609 24.147C178.609 23.1756 178.887 22.4123 179.372 21.9266C179.858 21.3715 180.482 21.1633 181.314 21.1633C182.077 21.1633 182.702 21.4409 183.187 21.9266C183.673 22.4123 183.881 23.1756 183.881 24.147C183.881 24.2164 183.881 24.2858 183.881 24.4245H179.65C179.719 25.049 179.858 25.5348 180.204 25.8817C180.551 26.2286 180.898 26.3674 181.384 26.3674C181.73 26.3674 182.008 26.298 182.285 26.0899C182.632 25.7429 182.84 25.4654 182.979 25.049ZM179.858 23.5225H183.048C182.979 23.0368 182.91 22.6899 182.702 22.4123C182.424 22.0654 182.008 21.8572 181.522 21.8572C181.106 21.8572 180.69 21.996 180.413 22.2735C180.066 22.6205 179.858 22.9674 179.858 23.5225ZM188.944 26.9225V26.2286C188.597 26.7837 188.042 27.0613 187.349 27.0613C186.863 27.0613 186.447 26.9225 186.1 26.7143C185.753 26.4368 185.407 26.0899 185.199 25.6735C184.991 25.2572 184.852 24.7021 184.852 24.147C184.852 23.5919 184.921 23.0368 185.129 22.6205C185.337 22.2041 185.615 21.7878 185.962 21.5796C186.308 21.3021 186.794 21.2327 187.21 21.2327C187.557 21.2327 187.834 21.3021 188.112 21.4409C188.389 21.5796 188.597 21.7878 188.736 21.996V19.1511H189.707V27.0613L188.944 26.9225ZM185.892 24.0776C185.892 24.8409 186.031 25.3266 186.378 25.7429C186.655 26.0899 187.071 26.298 187.488 26.298C187.904 26.298 188.251 26.1592 188.597 25.8123C188.944 25.4654 189.014 24.9103 189.014 24.2164C189.014 23.4531 188.875 22.898 188.528 22.4817C188.251 22.1348 187.834 21.9266 187.418 21.9266C187.002 21.9266 186.655 22.1348 186.308 22.4817C186.031 22.7592 185.892 23.3143 185.892 24.0776ZM191.372 20.1225V19.0123H192.343V20.1225H191.372ZM191.372 26.9225V21.2327H192.343V26.9225H191.372ZM195.88 26.0205L196.019 26.8531C195.742 26.9225 195.534 26.9225 195.256 26.9225C194.909 26.9225 194.632 26.8531 194.424 26.7837C194.216 26.645 194.077 26.5062 194.008 26.3674C193.938 26.1592 193.869 25.8123 193.869 25.1878V21.8572H193.175V21.0939H193.869V19.7062L194.84 19.1511V21.1633H195.811V21.9266H194.909V25.2572C194.909 25.5348 194.909 25.7429 194.979 25.8123C194.979 25.8817 195.048 25.9511 195.117 26.0205C195.187 26.0899 195.326 26.0899 195.464 26.0899C195.603 26.0899 195.742 26.0899 195.88 26.0205ZM203.649 24.8409L204.62 24.9796C204.481 25.6041 204.273 26.1592 203.857 26.5062C203.441 26.8531 202.886 27.0613 202.262 27.0613C201.499 27.0613 200.875 26.7837 200.389 26.298C199.904 25.8123 199.695 25.049 199.695 24.0776C199.695 23.4531 199.765 22.898 199.973 22.4817C200.181 21.996 200.458 21.649 200.875 21.4409C201.291 21.2327 201.776 21.0939 202.262 21.0939C202.886 21.0939 203.372 21.2327 203.788 21.5796C204.204 21.9266 204.412 22.3429 204.551 22.898L203.58 23.0368C203.51 22.6205 203.302 22.3429 203.094 22.2041C202.886 21.996 202.609 21.9266 202.262 21.9266C201.776 21.9266 201.36 22.1348 201.083 22.4817C200.805 22.8286 200.597 23.3837 200.597 24.147C200.597 24.9103 200.736 25.4654 201.013 25.8123C201.291 26.1592 201.707 26.3674 202.192 26.3674C202.539 26.3674 202.886 26.2286 203.164 26.0205C203.441 25.6735 203.58 25.3266 203.649 24.8409ZM209.129 26.1592C208.782 26.4368 208.435 26.7143 208.088 26.7837C207.741 26.9225 207.395 26.9919 207.048 26.9919C206.424 26.9919 205.938 26.8531 205.591 26.5062C205.244 26.2286 205.106 25.8123 205.106 25.3266C205.106 25.049 205.175 24.7715 205.314 24.5633C205.453 24.3552 205.591 24.147 205.799 24.0082C206.007 23.8694 206.216 23.7307 206.493 23.6613C206.701 23.5919 206.978 23.5919 207.325 23.5225C208.088 23.4531 208.713 23.3143 209.059 23.1756C209.059 23.0368 209.059 22.9674 209.059 22.898C209.059 22.4817 208.99 22.2041 208.782 22.0654C208.504 21.8572 208.158 21.7184 207.672 21.7184C207.187 21.7184 206.909 21.7878 206.632 21.9266C206.424 22.0654 206.285 22.3429 206.146 22.7592L205.175 22.6205C205.244 22.2041 205.383 21.8572 205.591 21.649C205.799 21.3715 206.077 21.2327 206.424 21.0939C206.77 20.9552 207.256 20.8858 207.741 20.8858C208.227 20.8858 208.643 20.9552 208.921 21.0245C209.198 21.1633 209.476 21.3021 209.614 21.4409C209.753 21.649 209.892 21.8572 209.892 22.1348C209.892 22.2735 209.961 22.6205 209.961 23.0368V24.3552C209.961 25.2572 209.961 25.8123 210.03 26.0899C210.1 26.298 210.169 26.5756 210.239 26.7837H209.198C209.267 26.7143 209.198 26.4368 209.129 26.1592ZM209.059 24.0776C208.713 24.2164 208.158 24.3552 207.464 24.4245C207.048 24.4939 206.77 24.5633 206.632 24.6327C206.493 24.7021 206.354 24.8409 206.285 24.9796C206.216 25.1184 206.146 25.2572 206.146 25.4654C206.146 25.7429 206.216 25.9511 206.424 26.0899C206.632 26.2286 206.909 26.3674 207.256 26.3674C207.603 26.3674 207.95 26.298 208.227 26.0899C208.504 25.9511 208.713 25.6735 208.851 25.396C208.99 25.1878 208.99 24.8409 208.99 24.4245L209.059 24.0776ZM211.556 26.9225V21.2327H212.458V22.1348C212.666 21.7184 212.874 21.4409 213.082 21.3021C213.291 21.1633 213.499 21.0939 213.707 21.0939C214.054 21.0939 214.331 21.1633 214.678 21.3715L214.331 22.2735C214.123 22.1348 213.845 22.0654 213.637 22.0654C213.429 22.0654 213.221 22.1348 213.082 22.2735C212.944 22.4123 212.805 22.5511 212.736 22.8286C212.597 23.1756 212.597 23.5225 212.597 23.9388V26.9225H211.556V26.9225ZM218.909 26.9225V26.2286C218.562 26.7837 218.007 27.0613 217.314 27.0613C216.828 27.0613 216.412 26.9225 216.065 26.7143C215.718 26.4368 215.371 26.0899 215.163 25.6735C214.955 25.2572 214.817 24.7021 214.817 24.147C214.817 23.5919 214.886 23.0368 215.094 22.6205C215.302 22.1348 215.579 21.7878 215.926 21.5796C216.273 21.3021 216.759 21.2327 217.175 21.2327C217.522 21.2327 217.799 21.3021 218.077 21.4409C218.354 21.5796 218.562 21.7878 218.701 21.996V19.1511H219.672V27.0613L218.909 26.9225ZM215.857 24.0776C215.857 24.8409 215.996 25.3266 216.342 25.7429C216.62 26.0899 217.036 26.298 217.452 26.298C217.868 26.298 218.215 26.1592 218.562 25.8123C218.909 25.4654 218.978 24.9103 218.978 24.2164C218.978 23.4531 218.84 22.898 218.493 22.4817C218.215 22.1348 217.799 21.9266 217.383 21.9266C216.967 21.9266 216.62 22.1348 216.273 22.4817C215.996 22.7592 215.857 23.3143 215.857 24.0776ZM224.042 24.0776C224.042 23.0368 224.319 22.2041 224.943 21.7184C225.429 21.3021 226.053 21.0939 226.747 21.0939C227.51 21.0939 228.204 21.3715 228.689 21.8572C229.175 22.3429 229.452 23.1062 229.452 24.0082C229.452 24.7715 229.313 25.3266 229.105 25.7429C228.897 26.1592 228.55 26.5062 228.134 26.7143C227.718 26.9225 227.232 27.0613 226.747 27.0613C225.915 27.0613 225.29 26.7837 224.805 26.298C224.25 25.7429 224.042 24.9797 224.042 24.0776ZM225.013 24.0776C225.013 24.8409 225.152 25.3266 225.498 25.7429C225.845 26.0899 226.192 26.298 226.678 26.298C227.163 26.298 227.579 26.0899 227.857 25.7429C228.204 25.396 228.342 24.8409 228.342 24.0776C228.342 23.3837 228.204 22.8286 227.857 22.4817C227.51 22.1348 227.163 21.9266 226.678 21.9266C226.192 21.9266 225.776 22.1348 225.498 22.4817C225.221 22.7592 225.013 23.3143 225.013 24.0776ZM230.77 26.9225V21.9266H229.938V21.1633H230.77V20.5388C230.77 20.1225 230.77 19.845 230.839 19.7062C230.909 19.4286 231.117 19.2205 231.325 19.0817C231.533 18.9429 231.88 18.8735 232.296 18.8735C232.573 18.8735 232.851 18.8735 233.198 18.9429L233.059 19.7756C232.851 19.7756 232.643 19.7062 232.504 19.7062C232.227 19.7062 232.018 19.7756 231.88 19.9143C231.741 20.0531 231.672 20.2613 231.672 20.6082V21.1633H232.781V21.9266H231.672V26.9225H230.77V26.9225ZM233.614 26.9225V21.9266H232.781V21.1633H233.614V20.5388C233.614 20.1225 233.614 19.845 233.683 19.7062C233.753 19.4286 233.961 19.2205 234.169 19.0817C234.377 18.9429 234.724 18.8735 235.14 18.8735C235.417 18.8735 235.695 18.8735 236.041 18.9429L235.903 19.7756C235.695 19.7756 235.487 19.7062 235.348 19.7062C235.07 19.7062 234.862 19.7756 234.724 19.9143C234.585 20.0531 234.516 20.2613 234.516 20.6082V21.1633H235.625V21.9266H234.516V26.9225H233.614V26.9225ZM240.342 25.049L241.313 25.1878C241.174 25.7429 240.897 26.2286 240.411 26.5756C239.995 26.9225 239.44 27.0613 238.747 27.0613C237.914 27.0613 237.221 26.7837 236.735 26.298C236.25 25.8123 235.972 25.049 235.972 24.147C235.972 23.1756 236.25 22.4123 236.735 21.9266C237.221 21.3715 237.845 21.1633 238.677 21.1633C239.44 21.1633 240.065 21.4409 240.55 21.9266C241.036 22.4123 241.244 23.1756 241.244 24.147C241.244 24.2164 241.244 24.2858 241.244 24.4245H237.013C237.082 25.049 237.221 25.5348 237.567 25.8817C237.914 26.2286 238.261 26.3674 238.747 26.3674C239.093 26.3674 239.371 26.298 239.648 26.0899C239.995 25.7429 240.203 25.4654 240.342 25.049ZM237.151 23.5225H240.342C240.273 23.0368 240.203 22.6899 239.995 22.4123C239.718 22.0654 239.302 21.8572 238.816 21.8572C238.4 21.8572 237.984 21.996 237.706 22.2735C237.429 22.5511 237.221 22.9674 237.151 23.5225ZM242.562 26.9225V21.2327H243.463V22.1348C243.671 21.7184 243.879 21.4409 244.088 21.3021C244.296 21.1633 244.504 21.0939 244.712 21.0939C245.059 21.0939 245.336 21.1633 245.683 21.3715L245.336 22.2735C245.128 22.1348 244.851 22.0654 244.642 22.0654C244.434 22.0654 244.226 22.1348 244.088 22.2735C243.949 22.4123 243.81 22.5511 243.741 22.8286C243.602 23.1756 243.602 23.5225 243.602 23.9388V26.9225C243.533 26.9225 242.562 26.9225 242.562 26.9225ZM245.822 25.1878L246.793 25.049C246.862 25.4654 247.001 25.7429 247.209 25.9511C247.486 26.1592 247.833 26.2286 248.249 26.2286C248.666 26.2286 249.012 26.1592 249.22 25.9511C249.428 25.7429 249.567 25.5348 249.567 25.3266C249.567 25.1184 249.498 24.9103 249.29 24.8409C249.151 24.7715 248.804 24.6327 248.319 24.4939C247.625 24.2858 247.14 24.147 246.862 24.0082C246.585 23.8694 246.377 23.6613 246.238 23.4531C246.099 23.245 246.03 22.9674 246.03 22.6899C246.03 22.4123 246.099 22.2041 246.168 21.996C246.307 21.7878 246.446 21.5796 246.654 21.4409C246.793 21.3021 247.001 21.2327 247.278 21.1633C247.556 21.0939 247.833 21.0245 248.111 21.0245C248.527 21.0245 248.943 21.0939 249.29 21.2327C249.637 21.3715 249.845 21.5103 250.053 21.7878C250.191 21.996 250.33 22.2735 250.4 22.6899L249.429 22.8286C249.359 22.5511 249.29 22.2735 249.082 22.1348C248.874 21.996 248.596 21.8572 248.18 21.8572C247.764 21.8572 247.417 21.9266 247.209 22.0654C247.001 22.2041 246.931 22.4123 246.931 22.5511C246.931 22.6899 247.001 22.7592 247.07 22.898C247.14 22.9674 247.278 23.1062 247.417 23.1756C247.486 23.245 247.764 23.3143 248.249 23.4531C248.943 23.6613 249.428 23.8001 249.706 23.8694C249.983 24.0082 250.191 24.147 250.33 24.3552C250.469 24.5633 250.538 24.8409 250.538 25.1878C250.538 25.5348 250.469 25.8123 250.261 26.0899C250.053 26.3674 249.775 26.5756 249.429 26.7837C249.082 26.9225 248.666 26.9919 248.249 26.9919C247.486 26.9919 246.931 26.8531 246.585 26.5062C246.238 26.2286 245.96 25.8123 245.822 25.1878ZM254.423 24.0776C254.423 23.0368 254.7 22.2041 255.324 21.7184C255.81 21.3021 256.434 21.0939 257.128 21.0939C257.891 21.0939 258.584 21.3715 259.07 21.8572C259.555 22.3429 259.833 23.1062 259.833 24.0082C259.833 24.7715 259.694 25.3266 259.486 25.7429C259.278 26.1592 258.931 26.5062 258.515 26.7143C258.099 26.9225 257.613 27.0613 257.128 27.0613C256.295 27.0613 255.671 26.7837 255.186 26.298C254.7 25.7429 254.423 24.9797 254.423 24.0776ZM255.463 24.0776C255.463 24.8409 255.602 25.3266 255.949 25.7429C256.295 26.0899 256.642 26.298 257.128 26.298C257.613 26.298 258.029 26.0899 258.307 25.7429C258.654 25.396 258.792 24.8409 258.792 24.0776C258.792 23.3837 258.654 22.8286 258.307 22.4817C257.96 22.1348 257.613 21.9266 257.128 21.9266C256.642 21.9266 256.226 22.1348 255.949 22.4817C255.602 22.7592 255.463 23.3143 255.463 24.0776ZM260.943 26.9225V21.2327H261.844V22.0654C262.261 21.4409 262.885 21.1633 263.648 21.1633C263.995 21.1633 264.341 21.2327 264.619 21.3715C264.896 21.5103 265.104 21.649 265.243 21.8572C265.382 22.0654 265.521 22.2735 265.521 22.5511C265.59 22.7592 265.59 23.0368 265.59 23.5225V27.0613H264.619V23.5919C264.619 23.1756 264.55 22.898 264.48 22.6899C264.411 22.4817 264.272 22.3429 264.064 22.2041C263.856 22.0654 263.648 21.996 263.37 21.996C262.954 21.996 262.607 22.1348 262.33 22.4123C262.053 22.6899 261.914 23.1756 261.914 23.8694V26.9919H260.943V26.9225ZM267.047 26.9225V19.0123H268.018V26.9225H267.047ZM269.474 20.1225V19.0123H270.445V20.1225H269.474ZM269.474 26.9225V21.2327H270.445V26.9225H269.474ZM271.971 26.9225V21.2327H272.873V22.0654C273.289 21.4409 273.914 21.1633 274.677 21.1633C275.023 21.1633 275.37 21.2327 275.648 21.3715C275.925 21.5103 276.133 21.649 276.272 21.8572C276.411 22.0654 276.549 22.2735 276.549 22.5511C276.549 22.7592 276.619 23.0368 276.619 23.5225V27.0613H275.648V23.5919C275.648 23.1756 275.578 22.898 275.509 22.6899C275.44 22.4817 275.301 22.3429 275.093 22.2041C274.885 22.0654 274.677 21.996 274.399 21.996C273.983 21.996 273.636 22.1348 273.359 22.4123C273.081 22.6899 272.942 23.1756 272.942 23.8694V26.9919H271.971V26.9225ZM281.96 25.049L282.931 25.1878C282.792 25.7429 282.515 26.2286 282.029 26.5756C281.613 26.9225 281.058 27.0613 280.364 27.0613C279.532 27.0613 278.838 26.7837 278.353 26.298C277.867 25.8123 277.59 25.049 277.59 24.147C277.59 23.1756 277.867 22.4123 278.353 21.9266C278.838 21.3715 279.463 21.1633 280.295 21.1633C281.058 21.1633 281.682 21.4409 282.168 21.9266C282.653 22.4123 282.861 23.1756 282.861 24.147C282.861 24.2164 282.861 24.2858 282.861 24.4245H278.63C278.7 25.049 278.838 25.5348 279.185 25.8817C279.532 26.2286 279.879 26.3674 280.364 26.3674C280.711 26.3674 280.989 26.298 281.266 26.0899C281.613 25.7429 281.821 25.4654 281.96 25.049ZM278.769 23.5225H281.96C281.89 23.0368 281.821 22.6899 281.613 22.4123C281.335 22.0654 280.919 21.8572 280.434 21.8572C280.017 21.8572 279.601 21.996 279.324 22.2735C278.977 22.6205 278.838 22.9674 278.769 23.5225Z" fill="#009EE8"/>
<path fill-rule="evenodd" clip-rule="evenodd" d="M43.6985 28.2408V5.75919C43.6985 4.09388 42.45 2.77551 40.8546 2.77551H2.98257C1.38723 2.77551 0.0693359 4.09388 0.0693359 5.75919V28.2408C0.0693359 29.9061 1.38723 31.2245 2.98257 31.2245H40.8546C42.45 31.2245 43.6985 29.9061 43.6985 28.2408Z" fill="#009EE8"/>
<path fill-rule="evenodd" clip-rule="evenodd" d="M0.0693359 28.3796C0.138699 29.9755 1.45659 31.2245 2.98257 31.2245H19.2828L22.8203 27.6163C22.4735 27.8939 21.988 28.102 21.5024 28.102H20.1845H16.9245H8.11541C6.58943 28.102 5.13282 27.4775 4.09238 26.4367C2.21958 24.2857 1.2485 25.6041 0.554875 25.6041H0.277424C0.208061 25.6041 0.138699 25.6041 0.0693359 25.6041C0.0693359 25.6041 0.0693359 28.3796 0.0693359 28.3796Z" fill="#005898"/>
<path fill-rule="evenodd" clip-rule="evenodd" d="M0 11.9347V26.2979C0.485539 25.8816 1.17917 25.604 1.87279 25.604H2.15025C2.91324 25.604 3.60686 25.8816 4.16176 26.4367C5.20221 27.4775 6.65882 28.102 8.1848 28.102H16.9939H20.2539H21.5025C22.6816 28.102 23.6527 27.1306 23.6527 25.951C23.6527 24.8408 22.8897 23.9387 21.8493 23.8C22.8897 23.5918 23.6527 22.7591 23.6527 21.6489C23.6527 20.5387 22.8203 19.6367 21.7799 19.4979C22.8203 19.2898 23.6527 18.1796 23.6527 17.0693C23.6527 16.0285 22.9591 15.1959 21.988 14.9183H31.0051C32.1843 14.9183 33.1554 13.9469 33.1554 12.7673C33.1554 11.5877 32.1843 10.6163 31.0051 10.6163H20.1846H18.3118H17.6181C18.3811 10.3387 18.936 9.57547 18.936 8.67343C18.936 7.49384 17.965 6.5918 16.8551 6.5918H10.335C9.64142 6.5918 8.94779 6.86935 8.39289 7.35506L4.16176 11.5183C3.60686 12.0734 2.84387 12.351 2.08088 12.351H1.45662C0.901716 12.2816 0.416177 12.1428 0 11.9347Z" fill="white"/>
<path d="M32.3229 14.4326C31.9761 14.7102 31.4906 14.9183 30.9357 14.9183H21.9185C22.8896 15.1265 23.5832 16.0285 23.5832 17.0694C23.5832 18.1796 22.7509 19.2898 21.7104 19.4979C22.7509 19.6367 23.5832 20.5387 23.5832 21.6489C23.5832 22.6898 22.8203 23.5918 21.7798 23.8C22.0573 23.8694 22.4041 23.9387 22.6122 24.1469C22.6815 24.1469 32.3229 14.4326 32.3229 14.4326Z" fill="#005898"/>
<path d="M159.604 0.138794C159.604 12.351 159.604 21.7184 159.604 33.9306" stroke="#009EE8" stroke-width="0.2403" stroke-miterlimit="68.8543"/>
</svg>
