<svg width="205" height="57" viewBox="0 0 205 57" fill="none" xmlns="http://www.w3.org/2000/svg">
<g clip-path="url(#clip0)">
<path d="M5.97283 51.9369H2.40615V55.6904H1.28536V47.1911H6.55074V48.1134H2.40615V51.0204H5.97283V51.9369ZM8.89739 55.6904H7.81747V49.3743H8.89739V55.6904ZM7.7299 47.6989C7.7299 47.5238 7.78244 47.3759 7.88751 47.2553C7.99648 47.1346 8.15604 47.0743 8.36619 47.0743C8.57633 47.0743 8.73589 47.1346 8.84486 47.2553C8.95382 47.3759 9.00831 47.5238 9.00831 47.6989C9.00831 47.8741 8.95382 48.02 8.84486 48.1367C8.73589 48.2535 8.57633 48.3119 8.36619 48.3119C8.15604 48.3119 7.99648 48.2535 7.88751 48.1367C7.78244 48.02 7.7299 47.8741 7.7299 47.6989ZM11.6527 49.3743L11.6877 50.1682C12.1703 49.5611 12.8007 49.2575 13.579 49.2575C14.9139 49.2575 15.5871 50.0106 15.5988 51.5166V55.6904H14.5189V51.5108C14.515 51.0555 14.4099 50.7188 14.2036 50.5009C14.0013 50.283 13.6841 50.174 13.2521 50.174C12.9019 50.174 12.5944 50.2674 12.3298 50.4542C12.0652 50.641 11.8589 50.8862 11.711 51.1897V55.6904H10.6311V49.3743H11.6527ZM16.9648 52.4798C16.9648 51.5108 17.1944 50.7325 17.6536 50.1448C18.1128 49.5533 18.714 49.2575 19.4573 49.2575C20.1968 49.2575 20.7824 49.5105 21.2144 50.0164V46.7241H22.2943V55.6904H21.302L21.2494 55.0133C20.8175 55.5425 20.2162 55.8071 19.4457 55.8071C18.714 55.8071 18.1167 55.5075 17.6536 54.9082C17.1944 54.3089 16.9648 53.5267 16.9648 52.5615V52.4798ZM18.0447 52.6024C18.0447 53.3184 18.1926 53.8788 18.4883 54.2836C18.7841 54.6883 19.1927 54.8907 19.7142 54.8907C20.3991 54.8907 20.8992 54.5832 21.2144 53.9684V51.0671C20.8914 50.4717 20.3952 50.174 19.7259 50.174C19.1966 50.174 18.7841 50.3783 18.4883 50.7869C18.1926 51.1956 18.0447 51.8007 18.0447 52.6024ZM28.4062 47.8449V49.3743H29.5853V50.209H28.4062V54.126C28.4062 54.3789 28.4587 54.5696 28.5638 54.698C28.6688 54.8226 28.8479 54.8848 29.1008 54.8848C29.2253 54.8848 29.3966 54.8615 29.6145 54.8148V55.6904C29.3304 55.7682 29.0541 55.8071 28.7856 55.8071C28.303 55.8071 27.9392 55.6612 27.694 55.3693C27.4488 55.0775 27.3262 54.663 27.3262 54.126V50.209H26.1762V49.3743H27.3262V47.8449H28.4062ZM31.932 50.139C32.4106 49.5513 33.0333 49.2575 33.8 49.2575C35.1348 49.2575 35.808 50.0106 35.8197 51.5166V55.6904H34.7398V51.5108C34.7359 51.0555 34.6308 50.7188 34.4246 50.5009C34.2222 50.283 33.905 50.174 33.4731 50.174C33.1228 50.174 32.8154 50.2674 32.5507 50.4542C32.2861 50.641 32.0799 50.8862 31.932 51.1897V55.6904H30.852V46.7241H31.932V50.139ZM40.0577 55.8071C39.2015 55.8071 38.5049 55.527 37.9679 54.9666C37.4309 54.4023 37.1623 53.6492 37.1623 52.7075V52.509C37.1623 51.8824 37.281 51.324 37.5184 50.8336C37.7597 50.3394 38.0944 49.9541 38.5225 49.6778C38.9544 49.3976 39.4214 49.2575 39.9234 49.2575C40.7446 49.2575 41.3828 49.528 41.8381 50.0689C42.2935 50.6099 42.5211 51.3843 42.5211 52.3922V52.8417H38.2423C38.2578 53.4644 38.4388 53.9684 38.7851 54.3536C39.1354 54.735 39.579 54.9257 40.1161 54.9257C40.4975 54.9257 40.8205 54.8479 41.0851 54.6922C41.3497 54.5365 41.5813 54.3303 41.7798 54.0734L42.4394 54.5871C41.9101 55.4005 41.1162 55.8071 40.0577 55.8071ZM39.9234 50.1448C39.4876 50.1448 39.1218 50.3044 38.826 50.6235C38.5302 50.9387 38.3473 51.3824 38.2773 51.9544H41.4412V51.8727C41.4101 51.324 41.2622 50.8998 40.9975 50.6001C40.7329 50.2966 40.3749 50.1448 39.9234 50.1448ZM52.0887 52.6024C52.0887 53.5675 51.8669 54.3439 51.4232 54.9315C50.9796 55.5153 50.3842 55.8071 49.637 55.8071C48.8392 55.8071 48.2224 55.525 47.7865 54.9607L47.734 55.6904H46.7416V46.7241H47.8215V50.0689C48.2574 49.528 48.8586 49.2575 49.6253 49.2575C50.3919 49.2575 50.9932 49.5475 51.4291 50.1273C51.8688 50.7072 52.0887 51.5011 52.0887 52.509V52.6024ZM51.0088 52.4798C51.0088 51.7443 50.8667 51.1761 50.5826 50.7753C50.2985 50.3744 49.8899 50.174 49.3568 50.174C48.6446 50.174 48.1328 50.5048 47.8215 51.1664V53.8983C48.1523 54.5599 48.6679 54.8907 49.3684 54.8907C49.886 54.8907 50.2888 54.6902 50.5768 54.2894C50.8648 53.8886 51.0088 53.2854 51.0088 52.4798ZM56.0757 55.8071C55.2195 55.8071 54.5229 55.527 53.9859 54.9666C53.4488 54.4023 53.1803 53.6492 53.1803 52.7075V52.509C53.1803 51.8824 53.299 51.324 53.5364 50.8336C53.7777 50.3394 54.1123 49.9541 54.5404 49.6778C54.9724 49.3976 55.4394 49.2575 55.9414 49.2575C56.7625 49.2575 57.4008 49.528 57.8561 50.0689C58.3114 50.6099 58.5391 51.3843 58.5391 52.3922V52.8417H54.2602C54.2758 53.4644 54.4568 53.9684 54.8031 54.3536C55.1534 54.735 55.597 54.9257 56.134 54.9257C56.5154 54.9257 56.8384 54.8479 57.1031 54.6922C57.3677 54.5365 57.5992 54.3303 57.7977 54.0734L58.4574 54.5871C57.9281 55.4005 57.1342 55.8071 56.0757 55.8071ZM55.9414 50.1448C55.5055 50.1448 55.1397 50.3044 54.844 50.6235C54.5482 50.9387 54.3653 51.3824 54.2952 51.9544H57.4591V51.8727C57.428 51.324 57.2801 50.8998 57.0155 50.6001C56.7509 50.2966 56.3928 50.1448 55.9414 50.1448ZM63.4717 54.0151C63.4717 53.7232 63.3608 53.4975 63.139 53.3379C62.9211 53.1745 62.5377 53.0344 61.989 52.9176C61.4442 52.8009 61.0103 52.6608 60.6873 52.4973C60.3681 52.3339 60.1308 52.1393 59.9751 51.9136C59.8233 51.6879 59.7474 51.4193 59.7474 51.108C59.7474 50.5904 59.9654 50.1526 60.4012 49.7946C60.841 49.4365 61.4014 49.2575 62.0824 49.2575C62.7985 49.2575 63.3783 49.4424 63.822 49.8121C64.2695 50.1818 64.4933 50.6546 64.4933 51.2306H63.4075C63.4075 50.9348 63.281 50.6799 63.0281 50.4659C62.779 50.2518 62.4638 50.1448 62.0824 50.1448C61.6894 50.1448 61.3819 50.2304 61.1601 50.4017C60.9383 50.5729 60.8274 50.7967 60.8274 51.073C60.8274 51.3337 60.9305 51.5302 61.1367 51.6626C61.343 51.7949 61.7147 51.9214 62.2517 52.042C62.7926 52.1626 63.2304 52.3066 63.5651 52.474C63.8998 52.6413 64.1469 52.8437 64.3065 53.0811C64.4699 53.3146 64.5517 53.6006 64.5517 53.9392C64.5517 54.5035 64.3259 54.9568 63.8745 55.2993C63.4231 55.6379 62.8374 55.8071 62.1174 55.8071C61.6115 55.8071 61.164 55.7176 60.7748 55.5386C60.3857 55.3596 60.0802 55.1105 59.8583 54.7914C59.6404 54.4684 59.5314 54.1201 59.5314 53.7465H60.6114C60.6308 54.1084 60.7748 54.3964 61.0433 54.6105C61.3158 54.8206 61.6738 54.9257 62.1174 54.9257C62.5261 54.9257 62.853 54.844 63.0981 54.6805C63.3472 54.5132 63.4717 54.2914 63.4717 54.0151ZM67.4237 47.8449V49.3743H68.6028V50.209H67.4237V54.126C67.4237 54.3789 67.4762 54.5696 67.5813 54.698C67.6864 54.8226 67.8654 54.8848 68.1183 54.8848C68.2429 54.8848 68.4141 54.8615 68.632 54.8148V55.6904C68.3479 55.7682 68.0716 55.8071 67.8031 55.8071C67.3206 55.8071 66.9567 55.6612 66.7115 55.3693C66.4663 55.0775 66.3438 54.663 66.3438 54.126V50.209H65.1938V49.3743H66.3438V47.8449H67.4237ZM75.3685 54.9257C75.7537 54.9257 76.0903 54.8089 76.3783 54.5754C76.6663 54.3419 76.8259 54.0501 76.857 53.6998H77.8786C77.8591 54.0618 77.7346 54.4062 77.505 54.7331C77.2754 55.06 76.9679 55.3207 76.5826 55.5153C76.2013 55.7099 75.7965 55.8071 75.3685 55.8071C74.5084 55.8071 73.8235 55.5211 73.3137 54.949C72.8078 54.3731 72.5548 53.587 72.5548 52.5907V52.4098C72.5548 51.7949 72.6677 51.2481 72.8934 50.7694C73.1191 50.2908 73.4421 49.9191 73.8624 49.6545C74.2866 49.3898 74.7867 49.2575 75.3626 49.2575C76.0709 49.2575 76.6585 49.4696 77.1255 49.8938C77.5964 50.318 77.8474 50.8687 77.8786 51.5458H76.857C76.8259 51.1372 76.6702 50.8025 76.39 50.5418C76.1137 50.2771 75.7712 50.1448 75.3626 50.1448C74.8139 50.1448 74.3878 50.3433 74.0842 50.7402C73.7846 51.1333 73.6347 51.7034 73.6347 52.4506V52.6549C73.6347 53.3827 73.7846 53.9431 74.0842 54.3361C74.3839 54.7292 74.8119 54.9257 75.3685 54.9257ZM82.1457 50.3433C81.9823 50.3161 81.8052 50.3024 81.6145 50.3024C80.9062 50.3024 80.4256 50.604 80.1727 51.2072V55.6904H79.0927V49.3743H80.1435L80.161 50.104C80.5151 49.5397 81.0172 49.2575 81.6671 49.2575C81.8772 49.2575 82.0368 49.2848 82.1457 49.3393V50.3433ZM85.6482 55.8071C84.792 55.8071 84.0954 55.527 83.5584 54.9666C83.0214 54.4023 82.7528 53.6492 82.7528 52.7075V52.509C82.7528 51.8824 82.8715 51.324 83.1089 50.8336C83.3502 50.3394 83.6849 49.9541 84.113 49.6778C84.5449 49.3976 85.0119 49.2575 85.5139 49.2575C86.3351 49.2575 86.9733 49.528 87.4286 50.0689C87.8839 50.6099 88.1116 51.3843 88.1116 52.3922V52.8417H83.8328C83.8483 53.4644 84.0293 53.9684 84.3756 54.3536C84.7259 54.735 85.1695 54.9257 85.7066 54.9257C86.088 54.9257 86.411 54.8479 86.6756 54.6922C86.9402 54.5365 87.1718 54.3303 87.3703 54.0734L88.0299 54.5871C87.5006 55.4005 86.7067 55.8071 85.6482 55.8071ZM85.5139 50.1448C85.0781 50.1448 84.7123 50.3044 84.4165 50.6235C84.1207 50.9387 83.9378 51.3824 83.8678 51.9544H87.0317V51.8727C87.0005 51.324 86.8527 50.8998 86.588 50.6001C86.3234 50.2966 85.9654 50.1448 85.5139 50.1448ZM89.104 52.4798C89.104 51.5108 89.3336 50.7325 89.7928 50.1448C90.252 49.5533 90.8533 49.2575 91.5966 49.2575C92.336 49.2575 92.9217 49.5105 93.3536 50.0164V46.7241H94.4336V55.6904H93.4412L93.3887 55.0133C92.9567 55.5425 92.3554 55.8071 91.5849 55.8071C90.8533 55.8071 90.2559 55.5075 89.7928 54.9082C89.3336 54.3089 89.104 53.5267 89.104 52.5615V52.4798ZM90.1839 52.6024C90.1839 53.3184 90.3318 53.8788 90.6275 54.2836C90.9233 54.6883 91.3319 54.8907 91.8534 54.8907C92.5383 54.8907 93.0384 54.5832 93.3536 53.9684V51.0671C93.0306 50.4717 92.5344 50.174 91.8651 50.174C91.3358 50.174 90.9233 50.3783 90.6275 50.7869C90.3318 51.1956 90.1839 51.8007 90.1839 52.6024ZM97.2881 55.6904H96.2082V49.3743H97.2881V55.6904ZM96.1206 47.6989C96.1206 47.5238 96.1731 47.3759 96.2782 47.2553C96.3872 47.1346 96.5467 47.0743 96.7569 47.0743C96.967 47.0743 97.1266 47.1346 97.2355 47.2553C97.3445 47.3759 97.399 47.5238 97.399 47.6989C97.399 47.8741 97.3445 48.02 97.2355 48.1367C97.1266 48.2535 96.967 48.3119 96.7569 48.3119C96.5467 48.3119 96.3872 48.2535 96.2782 48.1367C96.1731 48.02 96.1206 47.8741 96.1206 47.6989ZM100.487 47.8449V49.3743H101.666V50.209H100.487V54.126C100.487 54.3789 100.54 54.5696 100.645 54.698C100.75 54.8226 100.929 54.8848 101.182 54.8848C101.306 54.8848 101.477 54.8615 101.695 54.8148V55.6904C101.411 55.7682 101.135 55.8071 100.866 55.8071C100.384 55.8071 100.02 55.6612 99.7748 55.3693C99.5297 55.0775 99.4071 54.663 99.4071 54.126V50.209H98.2571V49.3743H99.4071V47.8449H100.487ZM108.432 54.9257C108.817 54.9257 109.154 54.8089 109.442 54.5754C109.73 54.3419 109.889 54.0501 109.92 53.6998H110.942C110.922 54.0618 110.798 54.4062 110.568 54.7331C110.339 55.06 110.031 55.3207 109.646 55.5153C109.265 55.7099 108.86 55.8071 108.432 55.8071C107.572 55.8071 106.887 55.5211 106.377 54.949C105.871 54.3731 105.618 53.587 105.618 52.5907V52.4098C105.618 51.7949 105.731 51.2481 105.957 50.7694C106.182 50.2908 106.505 49.9191 106.926 49.6545C107.35 49.3898 107.85 49.2575 108.426 49.2575C109.134 49.2575 109.722 49.4696 110.189 49.8938C110.66 50.318 110.911 50.8687 110.942 51.5458H109.92C109.889 51.1372 109.734 50.8025 109.453 50.5418C109.177 50.2771 108.835 50.1448 108.426 50.1448C107.877 50.1448 107.451 50.3433 107.148 50.7402C106.848 51.1333 106.698 51.7034 106.698 52.4506V52.6549C106.698 53.3827 106.848 53.9431 107.148 54.3361C107.447 54.7292 107.875 54.9257 108.432 54.9257ZM116.055 55.6904C115.993 55.5659 115.943 55.344 115.904 55.0249C115.402 55.5464 114.802 55.8071 114.106 55.8071C113.483 55.8071 112.971 55.632 112.571 55.2818C112.174 54.9276 111.975 54.4801 111.975 53.9392C111.975 53.2815 112.224 52.7717 112.722 52.4098C113.224 52.0439 113.929 51.861 114.835 51.861H115.886V51.3648C115.886 50.9874 115.773 50.6877 115.548 50.4659C115.322 50.2402 114.989 50.1273 114.549 50.1273C114.164 50.1273 113.841 50.2246 113.58 50.4192C113.32 50.6138 113.189 50.8492 113.189 51.1255H112.104C112.104 50.8103 112.214 50.5067 112.436 50.2149C112.662 49.9191 112.966 49.6856 113.347 49.5144C113.732 49.3431 114.154 49.2575 114.614 49.2575C115.341 49.2575 115.911 49.4404 116.324 49.8062C116.737 50.1682 116.951 50.6682 116.966 51.3065V54.2135C116.966 54.7934 117.04 55.2545 117.188 55.597V55.6904H116.055ZM114.263 54.8673C114.602 54.8673 114.923 54.7798 115.227 54.6046C115.53 54.4295 115.75 54.2018 115.886 53.9217V52.6257H115.04C113.717 52.6257 113.055 53.013 113.055 53.7874C113.055 54.126 113.168 54.3906 113.394 54.5813C113.619 54.772 113.909 54.8673 114.263 54.8673ZM121.712 50.3433C121.549 50.3161 121.371 50.3024 121.181 50.3024C120.472 50.3024 119.992 50.604 119.739 51.2072V55.6904H118.659V49.3743H119.71L119.727 50.104C120.081 49.5397 120.583 49.2575 121.233 49.2575C121.443 49.2575 121.603 49.2848 121.712 49.3393V50.3433ZM122.331 52.4798C122.331 51.5108 122.56 50.7325 123.02 50.1448C123.479 49.5533 124.08 49.2575 124.823 49.2575C125.563 49.2575 126.148 49.5105 126.58 50.0164V46.7241H127.66V55.6904H126.668L126.615 55.0133C126.183 55.5425 125.582 55.8071 124.812 55.8071C124.08 55.8071 123.483 55.5075 123.02 54.9082C122.56 54.3089 122.331 53.5267 122.331 52.5615V52.4798ZM123.411 52.6024C123.411 53.3184 123.559 53.8788 123.854 54.2836C124.15 54.6883 124.559 54.8907 125.08 54.8907C125.765 54.8907 126.265 54.5832 126.58 53.9684V51.0671C126.257 50.4717 125.761 50.174 125.092 50.174C124.563 50.174 124.15 50.3783 123.854 50.7869C123.559 51.1956 123.411 51.8007 123.411 52.6024ZM132.021 52.474C132.021 51.8552 132.142 51.2987 132.383 50.8045C132.628 50.3102 132.967 49.9288 133.399 49.6603C133.834 49.3918 134.331 49.2575 134.887 49.2575C135.747 49.2575 136.442 49.5552 136.971 50.1507C137.504 50.7461 137.771 51.538 137.771 52.5265V52.6024C137.771 53.2173 137.652 53.7699 137.415 54.2602C137.181 54.7467 136.845 55.1261 136.405 55.3985C135.969 55.6709 135.467 55.8071 134.899 55.8071C134.043 55.8071 133.348 55.5094 132.815 54.914C132.286 54.3186 132.021 53.5305 132.021 52.5499V52.474ZM133.107 52.6024C133.107 53.3029 133.268 53.8652 133.591 54.2894C133.918 54.7136 134.354 54.9257 134.899 54.9257C135.447 54.9257 135.883 54.7117 136.206 54.2836C136.529 53.8516 136.691 53.2484 136.691 52.474C136.691 51.7813 136.525 51.2209 136.195 50.7928C135.868 50.3608 135.432 50.1448 134.887 50.1448C134.354 50.1448 133.924 50.3569 133.597 50.7811C133.27 51.2053 133.107 51.8124 133.107 52.6024ZM139.656 55.6904V50.209H138.658V49.3743H139.656V48.7263C139.656 48.0492 139.837 47.5258 140.199 47.156C140.561 46.7863 141.073 46.6015 141.734 46.6015C141.983 46.6015 142.231 46.6346 142.476 46.7007L142.417 47.5763C142.235 47.5413 142.04 47.5238 141.834 47.5238C141.483 47.5238 141.213 47.6269 141.022 47.8332C140.832 48.0356 140.736 48.3274 140.736 48.7088V49.3743H142.085V50.209H140.736V55.6904H139.656ZM143.813 55.6904V50.209H142.814V49.3743H143.813V48.7263C143.813 48.0492 143.994 47.5258 144.355 47.156C144.717 46.7863 145.229 46.6015 145.891 46.6015C146.14 46.6015 146.387 46.6346 146.632 46.7007L146.574 47.5763C146.391 47.5413 146.196 47.5238 145.99 47.5238C145.64 47.5238 145.369 47.6269 145.179 47.8332C144.988 48.0356 144.892 48.3274 144.892 48.7088V49.3743H146.241V50.209H144.892V55.6904H143.813ZM149.919 55.8071C149.062 55.8071 148.366 55.527 147.829 54.9666C147.292 54.4023 147.023 53.6492 147.023 52.7075V52.509C147.023 51.8824 147.142 51.324 147.379 50.8336C147.621 50.3394 147.955 49.9541 148.383 49.6778C148.815 49.3976 149.282 49.2575 149.784 49.2575C150.605 49.2575 151.244 49.528 151.699 50.0689C152.154 50.6099 152.382 51.3843 152.382 52.3922V52.8417H148.103C148.119 53.4644 148.3 53.9684 148.646 54.3536C148.996 54.735 149.44 54.9257 149.977 54.9257C150.358 54.9257 150.681 54.8479 150.946 54.6922C151.211 54.5365 151.442 54.3303 151.641 54.0734L152.3 54.5871C151.771 55.4005 150.977 55.8071 149.919 55.8071ZM149.784 50.1448C149.348 50.1448 148.983 50.3044 148.687 50.6235C148.391 50.9387 148.208 51.3824 148.138 51.9544H151.302V51.8727C151.271 51.324 151.123 50.8998 150.858 50.6001C150.594 50.2966 150.236 50.1448 149.784 50.1448ZM156.69 50.3433C156.527 50.3161 156.349 50.3024 156.159 50.3024C155.45 50.3024 154.97 50.604 154.717 51.2072V55.6904H153.637V49.3743H154.688L154.705 50.104C155.059 49.5397 155.561 49.2575 156.211 49.2575C156.421 49.2575 156.581 49.2848 156.69 49.3393V50.3433ZM161.366 54.0151C161.366 53.7232 161.255 53.4975 161.033 53.3379C160.815 53.1745 160.432 53.0344 159.883 52.9176C159.338 52.8009 158.904 52.6608 158.581 52.4973C158.262 52.3339 158.025 52.1393 157.869 51.9136C157.717 51.6879 157.641 51.4193 157.641 51.108C157.641 50.5904 157.859 50.1526 158.295 49.7946C158.735 49.4365 159.295 49.2575 159.976 49.2575C160.693 49.2575 161.272 49.4424 161.716 49.8121C162.164 50.1818 162.387 50.6546 162.387 51.2306H161.302C161.302 50.9348 161.175 50.6799 160.922 50.4659C160.673 50.2518 160.358 50.1448 159.976 50.1448C159.583 50.1448 159.276 50.2304 159.054 50.4017C158.832 50.5729 158.721 50.7967 158.721 51.073C158.721 51.3337 158.825 51.5302 159.031 51.6626C159.237 51.7949 159.609 51.9214 160.146 52.042C160.687 52.1626 161.124 52.3066 161.459 52.474C161.794 52.6413 162.041 52.8437 162.201 53.0811C162.364 53.3146 162.446 53.6006 162.446 53.9392C162.446 54.5035 162.22 54.9568 161.769 55.2993C161.317 55.6379 160.731 55.8071 160.011 55.8071C159.506 55.8071 159.058 55.7176 158.669 55.5386C158.28 55.3596 157.974 55.1105 157.752 54.7914C157.534 54.4684 157.425 54.1201 157.425 53.7465H158.505C158.525 54.1084 158.669 54.3964 158.937 54.6105C159.21 54.8206 159.568 54.9257 160.011 54.9257C160.42 54.9257 160.747 54.844 160.992 54.6805C161.241 54.5132 161.366 54.2914 161.366 54.0151ZM166.532 52.474C166.532 51.8552 166.653 51.2987 166.894 50.8045C167.139 50.3102 167.478 49.9288 167.91 49.6603C168.345 49.3918 168.842 49.2575 169.398 49.2575C170.258 49.2575 170.953 49.5552 171.482 50.1507C172.015 50.7461 172.282 51.538 172.282 52.5265V52.6024C172.282 53.2173 172.163 53.7699 171.926 54.2602C171.692 54.7467 171.356 55.1261 170.916 55.3985C170.48 55.6709 169.978 55.8071 169.41 55.8071C168.554 55.8071 167.859 55.5094 167.326 54.914C166.797 54.3186 166.532 53.5305 166.532 52.5499V52.474ZM167.618 52.6024C167.618 53.3029 167.779 53.8652 168.102 54.2894C168.429 54.7136 168.865 54.9257 169.41 54.9257C169.959 54.9257 170.394 54.7117 170.717 54.2836C171.04 53.8516 171.202 53.2484 171.202 52.474C171.202 51.7813 171.036 51.2209 170.706 50.7928C170.379 50.3608 169.943 50.1448 169.398 50.1448C168.865 50.1448 168.435 50.3569 168.108 50.7811C167.781 51.2053 167.618 51.8124 167.618 52.6024ZM174.658 49.3743L174.693 50.1682C175.175 49.5611 175.806 49.2575 176.584 49.2575C177.919 49.2575 178.592 50.0106 178.604 51.5166V55.6904H177.524V51.5108C177.52 51.0555 177.415 50.7188 177.209 50.5009C177.006 50.283 176.689 50.174 176.257 50.174C175.907 50.174 175.599 50.2674 175.335 50.4542C175.07 50.641 174.864 50.8862 174.716 51.1897V55.6904H173.636V49.3743H174.658ZM181.406 55.6904H180.326V46.7241H181.406V55.6904ZM184.313 55.6904H183.233V49.3743H184.313V55.6904ZM183.145 47.6989C183.145 47.5238 183.198 47.3759 183.303 47.2553C183.412 47.1346 183.571 47.0743 183.782 47.0743C183.992 47.0743 184.151 47.1346 184.26 47.2553C184.369 47.3759 184.424 47.5238 184.424 47.6989C184.424 47.8741 184.369 48.02 184.26 48.1367C184.151 48.2535 183.992 48.3119 183.782 48.3119C183.571 48.3119 183.412 48.2535 183.303 48.1367C183.198 48.02 183.145 47.8741 183.145 47.6989ZM187.068 49.3743L187.103 50.1682C187.586 49.5611 188.216 49.2575 188.994 49.2575C190.329 49.2575 191.003 50.0106 191.014 51.5166V55.6904H189.934V51.5108C189.93 51.0555 189.825 50.7188 189.619 50.5009C189.417 50.283 189.1 50.174 188.668 50.174C188.317 50.174 188.01 50.2674 187.745 50.4542C187.481 50.641 187.274 50.8862 187.126 51.1897V55.6904H186.047V49.3743H187.068ZM195.264 55.8071C194.408 55.8071 193.711 55.527 193.174 54.9666C192.637 54.4023 192.368 53.6492 192.368 52.7075V52.509C192.368 51.8824 192.487 51.324 192.725 50.8336C192.966 50.3394 193.301 49.9541 193.729 49.6778C194.161 49.3976 194.628 49.2575 195.13 49.2575C195.951 49.2575 196.589 49.528 197.044 50.0689C197.5 50.6099 197.727 51.3843 197.727 52.3922V52.8417H193.448C193.464 53.4644 193.645 53.9684 193.991 54.3536C194.342 54.735 194.785 54.9257 195.322 54.9257C195.704 54.9257 196.027 54.8479 196.291 54.6922C196.556 54.5365 196.787 54.3303 196.986 54.0734L197.646 54.5871C197.116 55.4005 196.322 55.8071 195.264 55.8071ZM195.13 50.1448C194.694 50.1448 194.328 50.3044 194.032 50.6235C193.736 50.9387 193.553 51.3824 193.483 51.9544H196.647V51.8727C196.616 51.324 196.468 50.8998 196.204 50.6001C195.939 50.2966 195.581 50.1448 195.13 50.1448Z" fill="#009EE8"/>
<path d="M71.2 2.10001H75.9C77 2.10001 77.8 2.20001 78.3 2.30001C79 2.50001 79.7 2.90001 80.2 3.50001C80.7 4.10001 81.1 4.80001 81.4 5.60001C81.7 6.40001 81.8 7.40001 81.8 8.60001C81.8 9.60001 81.7 10.6 81.4 11.3C81.1 12.2 80.6 13 80 13.6C79.6 14 79 14.4 78.2 14.6C77.6 14.8 76.9 14.9 75.9 14.9H71.1C71.2 14.8 71.2 2.10001 71.2 2.10001ZM73.8 4.20001V12.6H75.7C76.4 12.6 76.9 12.6 77.2 12.5C77.6 12.4 78 12.2 78.2 12C78.5 11.7 78.7 11.3 78.9 10.8C79.1 10.2 79.2 9.50001 79.2 8.50001C79.2 7.50001 79.1 6.80001 78.9 6.20001C78.7 5.70001 78.5 5.30001 78.2 5.00001C77.9 4.70001 77.5 4.50001 77 4.40001C76.6 4.30001 75.9 4.30001 74.9 4.30001C74.9 4.20001 73.8 4.20001 73.8 4.20001ZM84 14.8V2.10001H89.4C90.8 2.10001 91.8 2.20001 92.4 2.40001C93 2.60001 93.5 3.00001 93.9 3.60001C94.3 4.20001 94.5 4.90001 94.5 5.60001C94.5 6.60001 94.2 7.30001 93.7 8.00001C93.1 8.60001 92.3 9.00001 91.2 9.20001C91.8 9.50001 92.2 9.90001 92.6 10.3C93 10.7 93.4 11.4 94.1 12.4L95.7 14.9H92.6L90.6 12C89.9 11 89.5 10.4 89.2 10.1C89 9.80001 88.7 9.70001 88.4 9.60001C88.1 9.50001 87.7 9.50001 87.1 9.50001H86.6V14.8H84ZM86.6 7.50001H88.5C89.7 7.50001 90.5 7.40001 90.8 7.30001C91.1 7.20001 91.3 7.00001 91.5 6.80001C91.7 6.50001 91.8 6.20001 91.8 5.80001C91.8 5.40001 91.7 5.00001 91.5 4.80001C91.3 4.50001 90.9 4.40001 90.5 4.30001C90.3 4.30001 89.7 4.30001 88.6 4.30001H86.6C86.6 4.20001 86.6 7.50001 86.6 7.50001ZM96.9 14.8V2.10001H106.3V4.30001H99.5V7.10001H105.9V9.30001H99.5V12.8H106.6V15C106.5 14.8 96.9 14.8 96.9 14.8ZM120.2 14.8H117.4L116.3 11.9H111.2L110.1 14.8H107.4L112.3 2.10001H115L120.2 14.8ZM115.5 9.80001L113.7 5.00001L112 9.80001H115.5ZM121.5 14.8V2.10001H125.4L127.7 10.8L130 2.10001H133.9V14.8H131.5V4.80001L129 14.8H126.5L124 4.80001V14.8C123.9 14.8 121.5 14.8 121.5 14.8ZM140.5 37.6V35H143.1V37.6H140.5ZM154.3 30.7L151.8 31.2C151.7 30.7 151.5 30.3 151.2 30.1C150.9 29.8 150.5 29.7 150 29.7C149.4 29.7 148.8 29.9 148.5 30.4C148.1 30.8 147.9 31.6 147.9 32.6C147.9 33.8 148.1 34.6 148.5 35.1C148.9 35.6 149.4 35.8 150.1 35.8C150.6 35.8 151 35.7 151.3 35.4C151.6 35.1 151.8 34.6 152 33.9L154.6 34.3C154.3 35.5 153.8 36.4 153.1 37C152.4 37.6 151.3 37.9 150.1 37.9C148.7 37.9 147.5 37.4 146.7 36.5C145.8 35.6 145.4 34.3 145.4 32.7C145.4 31.1 145.8 29.8 146.7 28.9C147.6 28 148.7 27.5 150.2 27.5C151.4 27.5 152.3 27.8 153 28.3C153.5 28.9 154 29.7 154.3 30.7ZM155.7 32.6C155.7 31.7 155.9 30.9 156.3 30.1C156.7 29.3 157.3 28.7 158.1 28.3C158.9 27.9 159.7 27.7 160.7 27.7C162.2 27.7 163.4 28.2 164.3 29.1C165.2 30.1 165.7 31.3 165.7 32.8C165.7 34.3 165.2 35.5 164.3 36.5C163.3 37.5 162.1 38 160.7 38C159.8 38 158.9 37.8 158.1 37.4C157.3 37 156.7 36.4 156.2 35.6C155.9 34.7 155.7 33.7 155.7 32.6ZM158.3 32.7C158.3 33.7 158.5 34.4 159 34.9C159.5 35.4 160 35.7 160.7 35.7C161.4 35.7 161.9 35.4 162.4 34.9C162.9 34.4 163.1 33.6 163.1 32.6C163.1 31.6 162.9 30.9 162.4 30.4C161.9 29.9 161.4 29.6 160.7 29.6C160 29.6 159.5 29.9 159 30.4C158.5 31 158.3 31.8 158.3 32.7ZM167.6 27.8H170V29.1C170.9 28.1 171.9 27.6 173 27.6C173.6 27.6 174.2 27.7 174.6 28C175.1 28.3 175.4 28.6 175.7 29.2C176.1 28.7 176.6 28.3 177.1 28C177.6 27.7 178.1 27.6 178.7 27.6C179.4 27.6 180 27.7 180.5 28C181 28.3 181.4 28.7 181.6 29.3C181.8 29.7 181.9 30.4 181.9 31.3V37.6H179.3V32C179.3 31 179.2 30.4 179 30.1C178.8 29.7 178.4 29.5 177.9 29.5C177.5 29.5 177.2 29.6 176.9 29.8C176.6 30 176.3 30.3 176.2 30.8C176.1 31.2 176 31.9 176 32.8V37.5H173.4V32.1C173.4 31.1 173.4 30.5 173.3 30.3C173.2 30 173.1 29.8 172.9 29.7C172.7 29.6 172.4 29.5 172.1 29.5C171.7 29.5 171.3 29.6 171 29.8C170.7 30 170.5 30.3 170.3 30.7C170.2 31.1 170.1 31.8 170.1 32.7V37.5H167.5L167.6 27.8Z" fill="#009EE8"/>
<path d="M145.1 9.8L147.7 10.6C147.3 12.1 146.6 13.2 145.7 13.9C144.8 14.6 143.6 15 142.1 15C140.3 15 138.8 14.4 137.7 13.2C136.5 12 136 10.3 136 8.2C136 5.9 136.6 4.2 137.7 2.9C138.9 1.7 140.4 1 142.3 1C144 1 145.3 1.5 146.3 2.5C146.9 3.1 147.4 3.9 147.7 5L145 5.6C144.8 4.9 144.5 4.3 144 3.9C143.5 3.5 142.9 3.3 142.2 3.3C141.2 3.3 140.4 3.7 139.8 4.4C139.2 5.1 138.9 6.3 138.9 7.9C138.9 9.6 139.2 10.8 139.8 11.6C140.4 12.3 141.2 12.7 142.2 12.7C142.9 12.7 143.6 12.5 144.1 12C144.5 11.5 144.9 10.8 145.1 9.8ZM150.1 14.8V1.3H155.9C157.3 1.3 158.4 1.4 159 1.7C159.7 1.9 160.2 2.4 160.6 3C161 3.6 161.2 4.3 161.2 5.1C161.2 6.1 160.9 7 160.3 7.6C159.7 8.3 158.8 8.7 157.6 8.9C158.2 9.2 158.7 9.6 159.1 10C159.5 10.4 160 11.1 160.7 12.2L162.3 14.8H159L157 11.8C156.3 10.8 155.8 10.1 155.6 9.8C155.3 9.5 155.1 9.3 154.8 9.2C154.5 9.1 154 9 153.4 9H152.8V14.7H150.1V14.8ZM152.8 7H154.8C156.1 7 156.9 6.9 157.3 6.8C157.6 6.7 157.9 6.5 158.1 6.2C158.3 5.9 158.4 5.6 158.4 5.2C158.4 4.7 158.3 4.4 158 4.1C157.8 3.8 157.4 3.6 157 3.6C156.8 3.6 156.1 3.6 155 3.6H152.9C152.8 3.6 152.8 7 152.8 7ZM163.7 14.8V1.3H173.7V3.6H166.4V6.6H173.2V8.9H166.4V12.6H173.9V14.9H163.7V14.8ZM176.3 1.3H181.3C182.4 1.3 183.3 1.4 183.9 1.6C184.7 1.8 185.4 2.2 185.9 2.8C186.5 3.4 186.9 4.1 187.2 5C187.5 5.9 187.6 6.9 187.6 8.2C187.6 9.3 187.5 10.3 187.2 11.1C186.9 12.1 186.4 12.9 185.8 13.5C185.3 14 184.7 14.3 183.9 14.6C183.3 14.8 182.5 14.9 181.5 14.9H176.4V1.3H176.3ZM179.1 3.6V12.6H181.1C181.9 12.6 182.4 12.6 182.7 12.5C183.1 12.4 183.5 12.2 183.8 11.9C184.1 11.6 184.3 11.2 184.5 10.6C184.7 10 184.8 9.2 184.8 8.1C184.8 7.1 184.7 6.3 184.5 5.7C184.3 5.1 184.1 4.7 183.7 4.4C183.4 4.1 183 3.9 182.4 3.8C182 3.7 181.3 3.7 180.2 3.7C180.3 3.6 179.1 3.6 179.1 3.6ZM189.9 14.8V1.3H192.6V14.8H189.9ZM198.3 14.8V3.6H194.3V1.3H205V3.6H201V14.9H198.3V14.8ZM71.2 37.6V24.1H75.3L77.7 33.3L80.1 24.1H84.2V37.6H81.7V26.9L79 37.6H76.4L73.8 27V37.7C73.8 37.6 71.2 37.6 71.2 37.6ZM99.2 37.6H96.3L95.1 34.5H89.7L88.6 37.6H85.7L90.9 24.1H93.8L99.2 37.6ZM94.2 32.3L92.3 27.3L90.5 32.3H94.2ZM100.7 37.6V24.1H103.4V30.1L108.9 24.1H112.6L107.5 29.4L112.9 37.7H109.4L105.7 31.3L103.5 33.6V37.7H100.7V37.6ZM114.3 37.6V24.1H124.3V26.4H117V29.4H123.8V31.7H117V35.4H124.5V37.7H114.3V37.6ZM126.9 37.6V24.1H132.7C134.1 24.1 135.2 24.2 135.9 24.5C136.6 24.7 137.1 25.2 137.5 25.8C137.9 26.4 138.1 27.1 138.1 27.9C138.1 28.9 137.8 29.8 137.2 30.4C136.6 31.1 135.7 31.5 134.5 31.7C135.1 32 135.6 32.4 136 32.8C136.4 33.2 136.9 33.9 137.5 35L139.1 37.6H135.8L133.8 34.6C133.1 33.6 132.6 32.9 132.4 32.6C132.1 32.3 131.9 32.1 131.6 32C131.3 31.9 130.8 31.8 130.2 31.8H129.6V37.5H126.9V37.6ZM129.6 29.8H131.6C132.9 29.8 133.7 29.7 134.1 29.6C134.4 29.5 134.7 29.3 134.9 29C135.1 28.7 135.2 28.4 135.2 28C135.2 27.5 135.1 27.2 134.8 26.9C134.6 26.6 134.2 26.4 133.8 26.4C133.6 26.4 132.9 26.4 131.8 26.4H129.7V29.8H129.6Z" fill="#005898"/>
<path fill-rule="evenodd" clip-rule="evenodd" d="M60.2 35.3V4.30001C60.2 2.00001 58.4 0.200012 56.2 0.200012H4.09998C1.89998 0.200012 0.0999756 2.00001 0.0999756 4.30001V35.3C0.0999756 37.6 1.89998 39.4 4.09998 39.4H56.3C58.4 39.4 60.2 37.6 60.2 35.3Z" fill="#009EE8"/>
<path fill-rule="evenodd" clip-rule="evenodd" d="M0.0999756 35.5C0.199976 37.7 1.99998 39.4 4.09998 39.4H26.5L31.4 34.5C30.9 34.9 30.3 35.1 29.6 35.1H27.7H23.2H11.2C9.09998 35.1 7.09998 34.3 5.69998 32.8C3.09998 29.8 1.79998 31.7 0.799976 31.7H0.399976C0.299976 31.7 0.199976 31.7 0.0999756 31.7C0.0999756 31.7 0.0999756 35.5 0.0999756 35.5Z" fill="#005898"/>
<path fill-rule="evenodd" clip-rule="evenodd" d="M0 12.8V32.6C0.7 32 1.6 31.7 2.6 31.7H2.9C3.9 31.7 4.9 32.1 5.7 32.8C7.2 34.3 9.2 35.1 11.2 35.1H23.3H27.8H29.7C31.4 35.1 32.7 33.8 32.7 32.1C32.7 30.6 31.6 29.4 30.2 29.1C31.6 28.8 32.7 27.6 32.7 26.1C32.7 24.6 31.6 23.4 30.2 23.1C31.6 22.8 32.7 21.3 32.7 19.8C32.7 18.4 31.7 17.2 30.4 16.9H42.8C44.5 16.9 45.8 15.6 45.8 13.9C45.8 12.2 44.5 10.9 42.8 10.9H27.8H25.2H24.3C25.4 10.5 26.1 9.40002 26.1 8.20002C26.1 6.60002 24.8 5.30002 23.2 5.30002H14.2C13.2 5.30002 12.3 5.70002 11.5 6.40002L5.7 12.1C4.9 12.8 3.9 13.3 2.8 13.3H2C1.3 13.3 0.6 13.1 0 12.8Z" fill="white"/>
<path d="M44.6 16.3C44 16.7 43.4 17 42.7 17H30.3C31.6 17.3 32.6 18.5 32.6 19.9C32.6 21.4 31.5 23 30.1 23.2C31.5 23.4 32.6 24.7 32.6 26.2C32.6 27.7 31.5 28.9 30.1 29.2C30.5 29.3 30.9 29.4 31.3 29.7C31.3 29.6 44.6 16.3 44.6 16.3Z" fill="#005898"/>
</g>
<defs>
<clipPath id="clip0">
<rect width="205" height="57" fill="white"/>
</clipPath>
</defs>
</svg>
