<svg width="35" height="35" viewBox="0 0 35 35" fill="none" xmlns="http://www.w3.org/2000/svg">
<path d="M20.9167 18.6667H20.2583L20.025 18.4417C20.8417 17.4917 21.3333 16.2583 21.3333 14.9167C21.3333 11.925 18.9083 9.5 15.9167 9.5C12.925 9.5 10.5 11.925 10.5 14.9167C10.5 17.9083 12.925 20.3333 15.9167 20.3333C17.2583 20.3333 18.4917 19.8417 19.4417 19.025L19.6667 19.2583V19.9167L23.8333 24.075L25.075 22.8333L20.9167 18.6667V18.6667ZM15.9167 18.6667C13.8417 18.6667 12.1667 16.9917 12.1667 14.9167C12.1667 12.8417 13.8417 11.1667 15.9167 11.1667C17.9917 11.1667 19.6667 12.8417 19.6667 14.9167C19.6667 16.9917 17.9917 18.6667 15.9167 18.6667Z" fill="white"/>
</svg>
