<?xml version="1.0" standalone="no"?>
<!DOCTYPE svg PUBLIC "-//W3C//DTD SVG 20010904//EN"
 "http://www.w3.org/TR/2001/REC-SVG-20010904/DTD/svg10.dtd">
<svg version="1.0" xmlns="http://www.w3.org/2000/svg"
 width="700.000000pt" height="700.000000pt" viewBox="0 0 700.000000 700.000000"
 preserveAspectRatio="xMidYMid meet">
<metadata>
Created by potrace 1.14, written by Peter Selinger 2001-2017
</metadata>
<g transform="translate(0.000000,700.000000) scale(0.100000,-0.100000)"
fill="#000000" stroke="none">
<path d="M0 6018 l0 -983 152 150 c84 83 286 281 448 441 350 345 424 400 598
445 72 18 118 19 951 19 750 0 885 -2 941 -16 173 -40 322 -185 374 -363 24
-83 21 -214 -7 -304 -41 -126 -130 -236 -237 -293 l-45 -23 1677 -1 c1176 0
1693 -3 1730 -11 190 -39 357 -199 402 -385 13 -52 14 80 15 1124 l1 1182
-3500 0 -3500 0 0 -982z"/>
<path d="M6985 4421 c-11 -64 -68 -172 -123 -232 -41 -44 -76 -69 -158 -110
l-106 -54 -1161 -3 c-747 -2 -1157 -6 -1147 -12 11 -7 8 -10 -15 -10 -26 0
-21 -4 29 -25 304 -125 422 -463 270 -771 -61 -124 -190 -244 -296 -276 -21
-6 -38 -15 -38 -20 0 -4 -8 -8 -17 -9 -10 0 16 -12 57 -27 374 -136 483 -611
204 -888 -58 -58 -100 -83 -244 -147 -23 -11 -30 -17 -20 -21 8 -2 33 -10 55
-16 22 -7 61 -24 87 -37 25 -14 51 -22 57 -19 6 4 36 -17 67 -46 315 -295 183
-817 -230 -913 -58 -14 -272 -15 -1853 -12 -1650 3 -1793 4 -1858 20 -180 44
-355 118 -478 200 l-67 45 0 -519 0 -519 3500 0 3500 0 0 2230 c0 1227 -2
2230 -4 2230 -2 0 -7 -18 -11 -39z"/>
</g>
</svg>
